<svg width="24" height="23" viewBox="0 0 24 23" fill="none" xmlns="http://www.w3.org/2000/svg">
<path d="M12 21.5684C11.8828 21.5684 11.7689 21.5651 11.6582 21.5586C11.554 21.5586 11.4499 21.5521 11.3457 21.5391L10.8184 22.5352C10.7533 22.6784 10.6523 22.7826 10.5156 22.8477C10.3789 22.9193 10.2292 22.9421 10.0664 22.916C9.91016 22.8835 9.77995 22.8118 9.67578 22.7012C9.57161 22.5905 9.50651 22.4505 9.48047 22.2812L9.31445 21.1875C9.10612 21.1289 8.90104 21.0605 8.69922 20.9824C8.4974 20.9108 8.29883 20.8359 8.10352 20.7578L7.29297 21.4805C7.16927 21.5911 7.0293 21.6562 6.87305 21.6758C6.72331 21.7018 6.57031 21.6725 6.41406 21.5879C6.27734 21.5033 6.17969 21.3893 6.12109 21.2461C6.06901 21.1094 6.05924 20.9596 6.0918 20.7969L6.30664 19.7227C6.14388 19.5924 5.97786 19.459 5.80859 19.3223C5.63932 19.1855 5.47656 19.0423 5.32031 18.8926L4.31445 19.3125C4.1582 19.3841 4.00521 19.4004 3.85547 19.3613C3.70573 19.3223 3.57227 19.2344 3.45508 19.0977C3.36393 18.9805 3.31185 18.8438 3.29883 18.6875C3.28581 18.5312 3.32161 18.3848 3.40625 18.248L3.99219 17.3008C3.875 17.1315 3.76432 16.9525 3.66016 16.7637C3.55599 16.5749 3.45182 16.3828 3.34766 16.1875L2.25391 16.2363C2.09115 16.2493 1.94141 16.2135 1.80469 16.1289C1.67448 16.0378 1.58333 15.9108 1.53125 15.748C1.47917 15.5983 1.47591 15.4518 1.52148 15.3086C1.56706 15.1589 1.65495 15.0352 1.78516 14.9375L2.64453 14.2539C2.59245 14.0456 2.54688 13.8372 2.50781 13.6289C2.46875 13.4141 2.44271 13.196 2.42969 12.9746L1.375 12.6328C1.21224 12.5807 1.08529 12.4961 0.994141 12.3789C0.909505 12.2552 0.867188 12.112 0.867188 11.9492C0.867188 11.7799 0.909505 11.6367 0.994141 11.5195C1.08529 11.3958 1.21224 11.3112 1.375 11.2656L2.42969 10.9238C2.44271 10.7025 2.46875 10.4876 2.50781 10.2793C2.54688 10.0645 2.59245 9.85286 2.64453 9.64453L1.77539 8.95117C1.65169 8.86003 1.56706 8.74284 1.52148 8.59961C1.47591 8.44987 1.47917 8.30013 1.53125 8.15039C1.58333 7.99414 1.67448 7.8737 1.80469 7.78906C1.94141 7.70443 2.08789 7.66536 2.24414 7.67188L3.34766 7.71094C3.45182 7.51562 3.55599 7.32682 3.66016 7.14453C3.76432 6.95573 3.875 6.77018 3.99219 6.58789L3.39648 5.64062C3.31836 5.51042 3.28581 5.37044 3.29883 5.2207C3.31185 5.06445 3.36393 4.92773 3.45508 4.81055C3.57227 4.67383 3.70247 4.58919 3.8457 4.55664C3.99544 4.51758 4.14844 4.52734 4.30469 4.58594L5.32031 4.99609C5.47656 4.85938 5.63932 4.72266 5.80859 4.58594C5.97786 4.44271 6.14388 4.30599 6.30664 4.17578L6.0918 3.11133C6.05273 2.94206 6.0625 2.78581 6.12109 2.64258C6.17969 2.49935 6.27734 2.39193 6.41406 2.32031C6.57031 2.23568 6.72331 2.20312 6.87305 2.22266C7.0293 2.24219 7.16927 2.31055 7.29297 2.42773L8.10352 3.14062C8.29883 3.0625 8.4974 2.98763 8.69922 2.91602C8.90104 2.83789 9.10612 2.76953 9.31445 2.71094L9.48047 1.62695C9.50651 1.45768 9.56836 1.31771 9.66602 1.20703C9.77018 1.09635 9.90039 1.02474 10.0566 0.992188C10.2259 0.966146 10.3789 0.988932 10.5156 1.06055C10.6523 1.12565 10.7533 1.22656 10.8184 1.36328L11.3457 2.35938C11.4564 2.34635 11.5638 2.33984 11.668 2.33984C11.7721 2.33333 11.8828 2.33008 12 2.33008C12.1042 2.33008 12.2083 2.33333 12.3125 2.33984C12.4232 2.33984 12.5306 2.34635 12.6348 2.35938L13.1719 1.35352C13.2305 1.22331 13.3281 1.12565 13.4648 1.06055C13.6081 0.988932 13.7611 0.966146 13.9238 0.992188C14.0801 1.02474 14.2103 1.09635 14.3145 1.20703C14.4251 1.31771 14.4902 1.45768 14.5098 1.62695L14.6758 2.71094C14.8776 2.76953 15.0794 2.83789 15.2812 2.91602C15.4831 2.98763 15.6849 3.0625 15.8867 3.14062L16.6973 2.41797C16.8145 2.30729 16.9479 2.24219 17.0977 2.22266C17.2539 2.20312 17.4102 2.23568 17.5664 2.32031C17.7031 2.39193 17.8008 2.49935 17.8594 2.64258C17.9245 2.78581 17.9375 2.94206 17.8984 3.11133L17.6738 4.17578C17.8431 4.30599 18.0091 4.44271 18.1719 4.58594C18.3411 4.72266 18.5007 4.85938 18.6504 4.99609L19.6758 4.58594C19.832 4.52734 19.985 4.51758 20.1348 4.55664C20.2845 4.58919 20.4147 4.67383 20.5254 4.81055C20.623 4.92773 20.6784 5.06445 20.6914 5.2207C20.7044 5.37044 20.6686 5.51042 20.584 5.64062L19.998 6.58789C20.2324 6.95247 20.444 7.32682 20.6328 7.71094L21.7461 7.67188C21.9023 7.66536 22.0456 7.70443 22.1758 7.78906C22.3125 7.8737 22.4036 7.9974 22.4492 8.16016C22.5078 8.30339 22.5111 8.44987 22.459 8.59961C22.4134 8.74284 22.3288 8.86003 22.2051 8.95117L21.3457 9.64453C21.3978 9.85286 21.4434 10.0645 21.4824 10.2793C21.5215 10.4876 21.5508 10.7025 21.5703 10.9238L22.6055 11.2656C22.957 11.3828 23.1328 11.6107 23.1328 11.9492C23.1328 12.2878 22.957 12.5156 22.6055 12.6328L21.5703 12.9746C21.5508 13.196 21.5215 13.4141 21.4824 13.6289C21.4434 13.8372 21.3978 14.0456 21.3457 14.2539L22.2051 14.9375C22.3288 15.0352 22.4134 15.1589 22.459 15.3086C22.5111 15.4583 22.5078 15.6081 22.4492 15.7578C22.4036 15.9141 22.3125 16.0378 22.1758 16.1289C22.0456 16.2135 21.9023 16.2493 21.7461 16.2363L20.6328 16.1875C20.5352 16.3828 20.4342 16.5749 20.3301 16.7637C20.2259 16.9525 20.1152 17.1315 19.998 17.3008L20.584 18.248C20.6686 18.3913 20.7044 18.541 20.6914 18.6973C20.6784 18.847 20.623 18.9805 20.5254 19.0977C20.4147 19.2344 20.2845 19.3223 20.1348 19.3613C19.985 19.4004 19.832 19.3874 19.6758 19.3223L18.6602 18.8926C18.5104 19.0423 18.3509 19.1855 18.1816 19.3223C18.0124 19.459 17.8431 19.5924 17.6738 19.7227L17.8984 20.7969C17.9896 21.1419 17.8822 21.4056 17.5762 21.5879C17.4199 21.6725 17.2637 21.7018 17.1074 21.6758C16.9577 21.6562 16.821 21.5911 16.6973 21.4805L15.8867 20.7578C15.6849 20.8359 15.4831 20.9108 15.2812 20.9824C15.0794 21.0605 14.8776 21.1289 14.6758 21.1875L14.5098 22.2812C14.4902 22.4505 14.4251 22.5905 14.3145 22.7012C14.2103 22.8118 14.0833 22.8835 13.9336 22.916C13.7643 22.9421 13.6113 22.9193 13.4746 22.8477C13.3379 22.7826 13.2337 22.6784 13.1621 22.5352L12.6348 21.5391C12.5306 21.5521 12.4232 21.5586 12.3125 21.5586C12.2083 21.5651 12.1042 21.5684 12 21.5684ZM12 19.5176C13.0547 19.5176 14.0345 19.3255 14.9395 18.9414C15.8509 18.5508 16.6484 18.0104 17.332 17.3203C18.0156 16.6237 18.5462 15.8197 18.9238 14.9082C19.3079 13.9902 19.5 13.0072 19.5 11.959C19.5 10.9043 19.3079 9.92122 18.9238 9.00977C18.5462 8.0918 18.0156 7.28776 17.332 6.59766C16.6484 5.90104 15.8509 5.35742 14.9395 4.9668C14.0345 4.57617 13.0547 4.38086 12 4.38086C10.9453 4.38086 9.96224 4.57617 9.05078 4.9668C8.14583 5.35742 7.35156 5.90104 6.66797 6.59766C5.98438 7.28776 5.45052 8.0918 5.06641 9.00977C4.6888 9.92122 4.5 10.9043 4.5 11.959C4.5 13.0072 4.6888 13.9902 5.06641 14.9082C5.45052 15.8197 5.98438 16.6237 6.66797 17.3203C7.35156 18.0104 8.14583 18.5508 9.05078 18.9414C9.96224 19.3255 10.9453 19.5176 12 19.5176ZM10.0078 10.3281L6.82422 4.86914L8.39648 4.05859L11.502 9.39062L10.0078 10.3281ZM14.4121 12.8184L14.4219 11.0508H20.6133V12.8184H14.4121ZM11.502 14.5176L8.2793 19.8203L6.7168 18.9707L10.0273 13.5508L11.502 14.5176ZM11.9805 14.8008C11.4531 14.8008 10.9746 14.6738 10.5449 14.4199C10.1152 14.166 9.77344 13.8242 9.51953 13.3945C9.26562 12.9648 9.13867 12.4863 9.13867 11.959C9.13867 11.4316 9.26562 10.9564 9.51953 10.5332C9.77344 10.1035 10.1152 9.76172 10.5449 9.50781C10.9746 9.2474 11.4531 9.11719 11.9805 9.11719C12.5013 9.11719 12.9766 9.2474 13.4062 9.50781C13.8424 9.76172 14.1875 10.1035 14.4414 10.5332C14.7018 10.9564 14.832 11.4316 14.832 11.959C14.832 12.4863 14.7018 12.9648 14.4414 13.3945C14.1875 13.8242 13.8424 14.166 13.4062 14.4199C12.9766 14.6738 12.5013 14.8008 11.9805 14.8008ZM11.9805 13.0723C12.2995 13.0723 12.5664 12.9681 12.7812 12.7598C12.9961 12.5449 13.1035 12.278 13.1035 11.959C13.1035 11.6465 12.9961 11.3828 12.7812 11.168C12.5664 10.9466 12.2995 10.8359 11.9805 10.8359C11.668 10.8359 11.4043 10.9466 11.1895 11.168C10.9746 11.3828 10.8672 11.6465 10.8672 11.959C10.8672 12.278 10.9746 12.5449 11.1895 12.7598C11.4043 12.9681 11.668 13.0723 11.9805 13.0723Z" fill="#EC6158"/>
</svg>
