<svg width="21" height="21" viewBox="0 0 21 21" fill="none" xmlns="http://www.w3.org/2000/svg">
<path d="M5.12695 10.4717V3.02734C5.12695 2.08398 5.36719 1.36914 5.84766 0.882812C6.32812 0.390625 7.04004 0.144531 7.9834 0.144531H11.9912V6.78906C11.9912 7.87891 12.5361 8.42383 13.626 8.42383H20.2002V16.29C20.2002 17.2334 19.96 17.9482 19.4795 18.4346C18.999 18.9268 18.2871 19.1729 17.3438 19.1729H10.084C10.3418 18.7393 10.541 18.2734 10.6816 17.7754C10.8281 17.2832 10.9014 16.7734 10.9014 16.2461C10.9014 15.4551 10.752 14.7139 10.4531 14.0225C10.1543 13.3252 9.73828 12.71 9.20508 12.1768C8.67188 11.6436 8.05664 11.2275 7.35938 10.9287C6.66211 10.624 5.91797 10.4717 5.12695 10.4717ZM13.7842 7.14062C13.4502 7.14062 13.2832 6.97363 13.2832 6.63965V0.232422C13.4824 0.255859 13.6816 0.337891 13.8809 0.478516C14.0859 0.619141 14.2969 0.800781 14.5137 1.02344L19.3125 5.89258C19.541 6.12695 19.7227 6.34375 19.8574 6.54297C19.998 6.74219 20.0801 6.94141 20.1035 7.14062H13.7842ZM4.74902 20.8867C4.59668 20.8867 4.46484 20.8428 4.35352 20.7549C4.24805 20.6729 4.18066 20.5586 4.15137 20.4121L3.94922 19.5684C3.89648 19.5508 3.84082 19.5303 3.78223 19.5068C3.72949 19.4893 3.6709 19.4629 3.60645 19.4277L2.85938 19.876C2.73047 19.958 2.59863 19.9932 2.46387 19.9814C2.3291 19.9756 2.20605 19.917 2.09473 19.8057L1.57617 19.2695C1.47656 19.1699 1.42383 19.0498 1.41797 18.9092C1.40625 18.7744 1.43555 18.6396 1.50586 18.5049L1.9541 17.7578C1.93066 17.7051 1.90723 17.6523 1.88379 17.5996C1.86035 17.5527 1.83984 17.5029 1.82227 17.4502L0.960938 17.2393C0.820312 17.2041 0.706055 17.1338 0.618164 17.0283C0.530273 16.9229 0.486328 16.7939 0.486328 16.6416V15.8857C0.486328 15.751 0.530273 15.6309 0.618164 15.5254C0.700195 15.4141 0.814453 15.3408 0.960938 15.3057L1.80469 15.0947C1.82812 15.042 1.85156 14.9893 1.875 14.9365C1.89844 14.8779 1.92188 14.8252 1.94531 14.7783L1.4707 14.0137C1.39453 13.8906 1.36816 13.7588 1.3916 13.6182C1.40918 13.4775 1.46777 13.3574 1.56738 13.2578L2.09473 12.7305C2.20605 12.6309 2.3291 12.5723 2.46387 12.5547C2.59863 12.5312 2.72168 12.5576 2.83301 12.6338L3.58887 13.1084C3.64746 13.0732 3.70605 13.0469 3.76465 13.0293C3.82324 13.0059 3.88477 12.9824 3.94922 12.959L4.15137 12.1064C4.18066 11.9658 4.24805 11.8516 4.35352 11.7637C4.46484 11.6699 4.59668 11.623 4.74902 11.623H5.50488C5.65137 11.623 5.77734 11.667 5.88281 11.7549C5.99414 11.8428 6.06738 11.96 6.10254 12.1064L6.30469 12.9678C6.35742 12.9854 6.41309 13.0059 6.47168 13.0293C6.53027 13.0469 6.5918 13.0732 6.65625 13.1084L7.41211 12.6338C7.5293 12.5576 7.65527 12.5312 7.79004 12.5547C7.9248 12.5723 8.04492 12.6309 8.15039 12.7305L8.69531 13.2578C8.79492 13.3574 8.85059 13.4775 8.8623 13.6182C8.87988 13.7588 8.85059 13.8906 8.77441 14.0137L8.30859 14.7783C8.33203 14.8252 8.35547 14.875 8.37891 14.9277C8.40234 14.9746 8.42578 15.0303 8.44922 15.0947L9.28418 15.3057C9.43066 15.3408 9.54785 15.4111 9.63574 15.5166C9.72949 15.6221 9.77637 15.7451 9.77637 15.8857V16.6416C9.77637 16.7939 9.73242 16.9229 9.64453 17.0283C9.55664 17.1338 9.43652 17.2041 9.28418 17.2393L8.43164 17.4502C8.41406 17.5029 8.39355 17.5527 8.37012 17.5996C8.35254 17.6523 8.3291 17.7051 8.2998 17.7578L8.73926 18.5049C8.82129 18.6396 8.85645 18.7744 8.84473 18.9092C8.83887 19.0439 8.7832 19.1641 8.67773 19.2695L8.15918 19.8057C8.04199 19.917 7.91602 19.9756 7.78125 19.9814C7.64648 19.9932 7.51758 19.958 7.39453 19.876L6.65625 19.4277C6.60352 19.457 6.54492 19.4834 6.48047 19.5068C6.41602 19.5303 6.35742 19.5508 6.30469 19.5684L6.10254 20.4121C6.06738 20.5645 5.99414 20.6816 5.88281 20.7637C5.77734 20.8457 5.65137 20.8867 5.50488 20.8867H4.74902ZM5.13574 17.7139C5.52246 17.7139 5.85938 17.5703 6.14648 17.2832C6.43945 17.002 6.58594 16.6621 6.58594 16.2637C6.58594 15.8652 6.43945 15.5195 6.14648 15.2266C5.85938 14.9336 5.52246 14.79 5.13574 14.7959C4.72559 14.8018 4.37988 14.9482 4.09863 15.2354C3.81738 15.5225 3.67676 15.8652 3.67676 16.2637C3.67676 16.6621 3.81738 17.002 4.09863 17.2832C4.37988 17.5703 4.72559 17.7139 5.13574 17.7139Z" fill="#EC6158"/>
</svg>
