<svg width="16" height="22" viewBox="0 0 16 22" fill="none" xmlns="http://www.w3.org/2000/svg">
<path d="M4.5791 10.4678C4.80762 10.4678 5.00391 10.3887 5.16797 10.2305C5.33203 10.0664 5.41406 9.87012 5.41406 9.6416C5.41406 9.40723 5.33203 9.21094 5.16797 9.05273C5.00391 8.89453 4.80762 8.81543 4.5791 8.81543C4.35645 8.81543 4.16309 8.89746 3.99902 9.06152C3.83496 9.21973 3.75293 9.41309 3.75293 9.6416C3.75293 9.86426 3.83496 10.0576 3.99902 10.2217C4.16309 10.3857 4.35645 10.4678 4.5791 10.4678ZM4.5791 13.6846C4.80762 13.6846 5.00391 13.6055 5.16797 13.4473C5.33203 13.2832 5.41406 13.0869 5.41406 12.8584C5.41406 12.624 5.33203 12.4307 5.16797 12.2783C5.00391 12.1201 4.80762 12.041 4.5791 12.041C4.35059 12.041 4.1543 12.1201 3.99023 12.2783C3.83203 12.4365 3.75293 12.6299 3.75293 12.8584C3.75293 13.0869 3.83203 13.2832 3.99023 13.4473C4.1543 13.6055 4.35059 13.6846 4.5791 13.6846ZM4.5791 17.0859C4.80762 17.0859 5.00391 17.0039 5.16797 16.8398C5.33203 16.6758 5.41406 16.4795 5.41406 16.251C5.41406 16.0225 5.33203 15.8291 5.16797 15.6709C5.00391 15.5068 4.80762 15.4248 4.5791 15.4248C4.35645 15.4248 4.16309 15.5068 3.99902 15.6709C3.83496 15.835 3.75293 16.0283 3.75293 16.251C3.75293 16.4795 3.83496 16.6758 3.99902 16.8398C4.16309 17.0039 4.35645 17.0859 4.5791 17.0859ZM7.0752 10.2832H12.2695C12.4453 10.2832 12.5947 10.2217 12.7178 10.0986C12.8467 9.96973 12.9111 9.81738 12.9111 9.6416C12.9111 9.45996 12.8467 9.30469 12.7178 9.17578C12.5947 9.04688 12.4453 8.98242 12.2695 8.98242H7.0752C6.89941 8.98242 6.74707 9.04688 6.61816 9.17578C6.48926 9.30469 6.4248 9.45996 6.4248 9.6416C6.4248 9.81738 6.48926 9.96973 6.61816 10.0986C6.74707 10.2217 6.89941 10.2832 7.0752 10.2832ZM7.0752 13.5H12.2695C12.4512 13.5 12.6035 13.4385 12.7266 13.3154C12.8496 13.1865 12.9111 13.0342 12.9111 12.8584C12.9111 12.6768 12.8496 12.5244 12.7266 12.4014C12.6035 12.2783 12.4512 12.2168 12.2695 12.2168H7.0752C6.89355 12.2168 6.73828 12.2783 6.60938 12.4014C6.48633 12.5244 6.4248 12.6768 6.4248 12.8584C6.4248 13.0342 6.48633 13.1865 6.60938 13.3154C6.73828 13.4385 6.89355 13.5 7.0752 13.5ZM7.0752 16.9014H12.2695C12.4453 16.9014 12.5947 16.8369 12.7178 16.708C12.8467 16.5791 12.9111 16.4268 12.9111 16.251C12.9111 16.0752 12.8496 15.9258 12.7266 15.8027C12.6035 15.6797 12.4512 15.6182 12.2695 15.6182H7.0752C6.89355 15.6182 6.73828 15.6797 6.60938 15.8027C6.48633 15.9258 6.4248 16.0752 6.4248 16.251C6.4248 16.4268 6.48926 16.5791 6.61816 16.708C6.74707 16.8369 6.89941 16.9014 7.0752 16.9014ZM3.66504 21.876C2.7334 21.876 2.02441 21.6299 1.53809 21.1377C1.05176 20.6455 0.808594 19.9277 0.808594 18.9844V5.67773C0.808594 4.72852 1.04883 4.00781 1.5293 3.51562C2.00977 3.02344 2.69824 2.77734 3.59473 2.77734H3.7793C3.76758 2.81836 3.75586 2.8623 3.74414 2.90918C3.73828 2.95605 3.73535 3.00293 3.73535 3.0498V4.06934C3.73535 4.63184 3.9082 5.09766 4.25391 5.4668C4.60547 5.83008 5.0625 6.01172 5.625 6.01172H11.0391C11.6016 6.01172 12.0557 5.83008 12.4014 5.4668C12.7529 5.09766 12.9287 4.63184 12.9287 4.06934V3.0498C12.9287 3.00293 12.9229 2.95605 12.9111 2.90918C12.9053 2.8623 12.8965 2.81836 12.8848 2.77734H13.0693C13.9658 2.77734 14.6543 3.02344 15.1348 3.51562C15.6152 4.00781 15.8555 4.72852 15.8555 5.67773V18.9844C15.8555 19.9277 15.6123 20.6455 15.126 21.1377C14.6396 21.6299 13.9277 21.876 12.9902 21.876H3.66504ZM5.625 4.97461C5.35547 4.97461 5.14453 4.89551 4.99219 4.7373C4.8457 4.5791 4.77246 4.35645 4.77246 4.06934V3.14648C4.77246 2.85937 4.8457 2.63672 4.99219 2.47852C5.14453 2.32031 5.35547 2.24121 5.625 2.24121H6.37207C6.40137 1.73145 6.60352 1.29785 6.97852 0.94043C7.35352 0.577148 7.80469 0.395508 8.33203 0.395508C8.85352 0.395508 9.30176 0.577148 9.67676 0.94043C10.0576 1.29785 10.2627 1.73145 10.292 2.24121H11.0391C11.3086 2.24121 11.5166 2.32031 11.6631 2.47852C11.8154 2.63672 11.8916 2.85937 11.8916 3.14648V4.06934C11.8916 4.35645 11.8154 4.5791 11.6631 4.7373C11.5166 4.89551 11.3086 4.97461 11.0391 4.97461H5.625ZM8.33203 3.09375C8.54883 3.09375 8.73047 3.01758 8.87695 2.86523C9.0293 2.70703 9.10547 2.52539 9.10547 2.32031C9.10547 2.10352 9.0293 1.91895 8.87695 1.7666C8.73047 1.61426 8.54883 1.53809 8.33203 1.53809C8.11523 1.53809 7.93066 1.61426 7.77832 1.7666C7.63184 1.91895 7.55859 2.10352 7.55859 2.32031C7.55859 2.52539 7.63184 2.70703 7.77832 2.86523C7.93066 3.01758 8.11523 3.09375 8.33203 3.09375Z" fill="#EC6158"/>
</svg>
