<svg width="24" height="17" viewBox="0 0 24 17" fill="none" xmlns="http://www.w3.org/2000/svg">
<path d="M5.6543 10.6055C5.26172 10.7109 4.90723 10.7373 4.59082 10.6846C4.28027 10.6318 4.0166 10.4854 3.7998 10.2451L0.723633 6.78223C0.641602 6.69434 0.600586 6.5918 0.600586 6.47461C0.606445 6.35742 0.65918 6.25488 0.758789 6.16699L1.02246 5.9209C1.14551 5.80957 1.26562 5.74219 1.38281 5.71875C1.50586 5.68945 1.63477 5.69824 1.76953 5.74512L7.28906 7.70508L4.82812 7.62598L9.68848 5.95605L9.47754 7.02832L4.3623 1.5791C4.25098 1.46777 4.20996 1.34766 4.23926 1.21875C4.26855 1.08984 4.34473 1.00488 4.46777 0.963867L5.08301 0.779297C5.34668 0.703125 5.61035 0.723633 5.87402 0.84082L13.2305 4.3125C13.4355 4.41211 13.6113 4.46777 13.7578 4.47949C13.9102 4.48535 14.0771 4.45898 14.2588 4.40039L19.5762 2.58105C20.0918 2.40527 20.6074 2.32324 21.123 2.33496C21.6445 2.34668 22.0986 2.45215 22.4854 2.65137C22.8779 2.85059 23.1475 3.14648 23.2939 3.53906C23.4463 3.96094 23.4258 4.37695 23.2324 4.78711C23.0391 5.19141 22.7227 5.55176 22.2832 5.86816C21.8438 6.18457 21.3311 6.42188 20.7451 6.58008L5.6543 10.6055ZM2.36719 16.6787C2.13281 16.6787 1.93066 16.5908 1.76074 16.415C1.59082 16.2451 1.50586 16.043 1.50586 15.8086C1.50586 15.5684 1.59082 15.3633 1.76074 15.1934C1.93066 15.0293 2.13281 14.9473 2.36719 14.9473H21.4131C21.6533 14.9473 21.8584 15.0293 22.0283 15.1934C22.1982 15.3633 22.2832 15.5684 22.2832 15.8086C22.2832 16.043 22.1982 16.2451 22.0283 16.415C21.8584 16.5908 21.6533 16.6787 21.4131 16.6787H2.36719Z" fill="#EC6158"/>
</svg>
